<svg width="170" height="12" viewBox="0 0 170 12" fill="none" xmlns="http://www.w3.org/2000/svg">
<g clip-path="url(#clip0_7_1761)">
<path d="M45.3326 10.3645C60.46 9.54317 75.6037 8.89583 90.7558 8.41556C98.266 8.1789 105.768 7.984 113.278 7.83087C117.099 7.7543 120.928 7.6847 124.749 7.62901C125.637 7.61509 126.524 7.60117 127.411 7.59421C129.416 7.56637 121.799 7.67078 123.015 7.64989C123.287 7.64989 123.558 7.64293 123.837 7.63597C124.314 7.63597 124.79 7.62205 125.275 7.61509C127.19 7.59421 129.096 7.57333 131.01 7.55245C139.548 7.47588 148.085 7.455 156.623 7.48284C159.137 7.53853 161.643 7.46892 164.149 7.28098C165.785 7.24618 167.395 7.05825 168.989 6.71022C170.123 6.44572 170.312 6.11857 169.548 5.7427C168.767 5.0188 167.74 4.64293 166.467 4.62901C161.331 3.4666 155.908 2.96544 150.641 2.54085C143.812 1.984 136.951 1.60117 130.09 1.58029C113.188 1.51764 96.2858 1.67774 79.3918 1.99792C64.1658 2.2833 48.948 2.7427 33.7303 3.36915C25.1354 3.72414 16.5405 4.13481 7.95379 4.60117C6.0639 4.58029 4.20688 4.74038 2.38272 5.08145C1.44599 5.06753 0.648946 5.33899 0.00802612 5.90975C0.550343 6.55013 1.28987 6.91207 2.2266 7.00952C3.98502 7.55941 5.80096 7.93528 7.6662 8.13713C13.8618 9.07681 20.1641 9.64061 26.4419 9.98168C32.7196 10.3227 39.0713 10.7056 45.3408 10.3645H45.3326Z" fill="#29A2BA"/>
</g>
<defs>
<clipPath id="clip0_7_1761">
<rect width="170" height="12" fill="white"/>
</clipPath>
</defs>
</svg>
